<svg width="2422" height="2543" viewBox="0 0 2422 2543" fill="none" xmlns="http://www.w3.org/2000/svg">
<rect width="2422" height="2543" fill="#2FFF29"/>
<path d="M975.506 1386H909.306V1151.6H1041.31V1202.6L975.506 1198.6V1253H1029.51V1302.6L975.506 1298.6V1386ZM1058.15 1386V1151.6H1126.35V1386H1058.15ZM1217.24 1386H1153.64V1170.4L1143.84 1151.6H1217.44L1254.24 1227.6L1289.44 1303.4L1279.64 1214.4V1151.6H1343.44V1386H1282.44L1234.84 1293.4L1205.44 1235.4L1217.24 1312.2V1386ZM1512.24 1386H1370.44V1151.6H1509.24L1505.24 1198.8L1436.64 1196.8V1242H1490.64V1288.8L1436.64 1284.8V1338L1512.24 1336V1386Z" fill="white"/>
</svg>
